# File created by Blade
# Date/Time:  Fri Jan 16 19:14:28 2015
# Frame Rate: 120.000 fps
#------------------------------------------------------
:FULLY-SPECIFIED
:DEGREES
892
root 18.971663 35.808440 -22.213427 -168.105187 -0.607391 -178.378920
Spine -25.551336 -0.869042 0.815788
Head 18.969637 2.115346 4.331297
LeftShoulder -25.910527 -70.740739 76.287037
LeftArm 51.099320 -21.842852 -0.832710
LeftForeArm -3.564785 0.000000 2.168640
LeftHand -0.240784 0.000000 -22.751714
LeftHandThumb1 -26.253704 0.000000 33.147579
RightShoulder -10.315459 20.825316 -47.868963
RightArm 41.004042 49.296001 -16.604110
RightForeArm -56.690804 0.000000 7.683986
RightHand -0.858345 0.000000 -1.652943
RightHandThumb1 -24.326973 -0.000000 -32.862282
LeftUpLeg -2.252631 7.620554 0.490373
LeftLeg -7.262532 -0.000000 0.000000
LeftFoot -20.168864 28.341914 -17.027223
LeftToeBase 23.126755 -0.000000 -0.000000
RightUpLeg -4.122902 -9.044042 1.304860
RightLeg -3.774184 -0.000000 0.000000
RightFoot -19.328749 -22.269056 21.031525
RightToeBase 22.678131 -0.000000 -0.000000
893
root 18.972234 35.808872 -22.209946 -168.127849 -0.573176 -178.375153
Spine -25.512291 -0.860192 0.802547
Head 18.954089 2.126954 4.316634
LeftShoulder -25.835740 -70.750098 76.250973
LeftArm 51.116800 -21.862015 -0.915937
LeftForeArm -3.448075 -0.000000 2.063344
LeftHand -0.304349 0.000000 -22.957867
LeftHandThumb1 -26.253704 0.000000 33.147579
RightShoulder -10.229777 20.866293 -47.878823
RightArm 40.957158 49.246675 -16.622980
RightForeArm -56.752742 0.000000 7.721661
RightHand -0.892996 -0.000000 -1.650874
RightHandThumb1 -24.326973 -0.000000 -32.862282
LeftUpLeg -2.232288 7.641031 0.491978
LeftLeg -7.261248 -0.000000 0.000000
LeftFoot -20.155110 28.354328 -17.014414
LeftToeBase 23.067327 -0.000000 -0.000000
RightUpLeg -4.119445 -9.022305 1.300757
RightLeg -3.752225 -0.000000 0.000000
RightFoot -19.326267 -22.262089 21.028672
RightToeBase 22.419142 -0.000000 -0.000000
894
root 18.973767 35.809543 -22.206008 -168.147804 -0.546452 -178.374361
Spine -25.486742 -0.868797 0.783604
Head 18.945413 2.072745 4.269478
LeftShoulder -25.713549 -70.768339 76.189589
LeftArm 51.109818 -21.878923 -0.994817
LeftForeArm -3.333682 -0.000000 2.002232
LeftHand -0.231420 -0.000000 -22.912480
LeftHandThumb1 -26.253704 0.000000 33.147579
RightShoulder -10.146029 20.861483 -47.885007
RightArm 40.926762 49.183261 -16.639252
RightForeArm -56.360182 -0.000000 7.635483
RightHand -0.705777 0.000000 -2.126913
RightHandThumb1 -24.326973 -0.000000 -32.862282
LeftUpLeg -2.217565 7.663535 0.492036
LeftLeg -7.256020 -0.000000 0.000000
LeftFoot -20.168989 28.349741 -17.037166
LeftToeBase 23.097248 -0.000000 -0.000000
RightUpLeg -4.119181 -9.002450 1.297698
RightLeg -3.730952 -0.000000 0.000000
RightFoot -19.330743 -22.252265 21.037583
RightToeBase 22.409287 -0.000000 -0.000000
895
root 18.974724 35.810282 -22.201748 -168.168180 -0.519863 -178.371967
Spine -25.433255 -0.863258 0.785535
Head 18.936823 2.147695 4.241615
LeftShoulder -25.755148 -70.794312 76.229540
LeftArm 51.124967 -21.869164 -1.062406
LeftForeArm -3.311031 0.000000 1.920581
LeftHand -0.287527 -0.000000 -23.021453
LeftHandThumb1 -26.253704 0.000000 33.147579
RightShoulder -10.119506 20.839550 -47.931426
RightArm 40.913670 49.202739 -16.613319
RightForeArm -56.312103 -0.000000 7.600754
RightHand -0.585184 -0.000000 -2.273197
RightHandThumb1 -24.326973 -0.000000 -32.862282
LeftUpLeg -2.197857 7.669485 0.493848
LeftLeg -7.260052 -0.000000 0.000000
LeftFoot -20.176983 28.359835 -17.068062
LeftToeBase 23.071267 -0.000000 -0.000000
RightUpLeg -4.117151 -8.986018 1.294416
RightLeg -3.714105 -0.000000 0.000000
RightFoot -19.328150 -22.245271 21.015334
RightToeBase 22.463796 -0.000000 -0.000000
896
root 18.975872 35.810728 -22.197550 -168.186129 -0.488776 -178.369087
Spine -25.387834 -0.859250 0.777310
Head 18.928394 2.201086 4.219468
LeftShoulder -25.745338 -70.794449 76.237742
LeftArm 51.129988 -21.870790 -1.108891
LeftForeArm -3.315027 -0.000000 1.821206
LeftHand -0.251313 0.000000 -23.168994
LeftHandThumb1 -26.253704 0.000000 33.147579
RightShoulder -10.097181 20.850432 -47.970655
RightArm 40.911975 49.164566 -16.589602
RightForeArm -56.261569 -0.000000 7.504465
RightHand -0.356388 -0.000000 -2.555718
RightHandThumb1 -24.326973 -0.000000 -32.862282
LeftUpLeg -2.177856 7.690573 0.495336
LeftLeg -7.268370 -0.000000 0.000000
LeftFoot -20.170348 28.369832 -17.073702
LeftToeBase 23.071454 -0.000000 -0.000000
RightUpLeg -4.113755 -8.957528 1.290975
RightLeg -3.705690 -0.000000 0.000000
RightFoot -19.312822 -22.245589 21.013564
RightToeBase 22.411078 -0.000000 -0.000000
897
root 18.977001 35.811543 -22.192657 -168.191705 -0.468389 -178.362111
Spine -25.358918 -0.863567 0.775460
Head 18.915828 2.187719 4.151745
LeftShoulder -25.730685 -70.790898 76.254938
LeftArm 51.101101 -21.853512 -1.135424
LeftForeArm -3.368004 -0.000000 1.749790
LeftHand -0.215913 -0.000000 -23.185486
LeftHandThumb1 -26.253704 0.000000 33.147579
RightShoulder -10.081921 20.846090 -47.982895
RightArm 40.955847 49.189866 -16.532607
RightForeArm -56.744228 -0.000000 7.634639
RightHand -0.563617 -0.000000 -2.160768
RightHandThumb1 -24.326973 -0.000000 -32.862282
LeftUpLeg -2.178071 7.705306 0.498910
LeftLeg -7.267715 -0.000000 0.000000
LeftFoot -20.166702 28.390943 -17.066123
LeftToeBase 23.079232 -0.000000 -0.000000
RightUpLeg -4.121427 -8.943464 1.295378
RightLeg -3.701152 -0.000000 0.000000
RightFoot -19.293326 -22.226917 21.021042
RightToeBase 22.671315 -0.000000 -0.000000
